# xmcd
#
# Track frame offsets:
#	150
#	19833
#	38010
#	52703
#	78892
#	96552
#	113598
#	134285
#	149455
#
# Disc length: 2245 seconds
#
# Revision: 0
# Processed by: cddbd v1.5.2PL0 Copyright (c) Steve Scherf et al.
# Submitted via: EasyCDDAExtractor 10.2.0.1
#
DISCID=6c08c309
DTITLE=Ed "Porkchop" Meyer - I Got What You Need
DYEAR=2008
DGENRE=blues
TTITLE0=I Got What You Need
TTITLE1=Train To Malaysia
TTITLE2=Jesus Said
TTITLE3=Moon
TTITLE4=Double Shot of Double Entendre (W/An In-U-Endo-Chaser)
TTITLE5=Three May Keep A Secret
TTITLE6=16 X 80 (Look It Up)
TTITLE7=The Devil's Always Smiling
TTITLE8=La Bufadora
EXTD=
EXTT0=
EXTT1=
EXTT2=
EXTT3=
EXTT4=
EXTT5=
EXTT6=
EXTT7=
EXTT8=
PLAYORDER=
